<svg id="Stroke" xmlns="http://www.w3.org/2000/svg" viewBox="0 0 395.47 465.53"><defs><style>.cls-1{fill:none;stroke:#000;stroke-linecap:round;stroke-linejoin:round;stroke-width:3px;}</style></defs><path class="cls-1" d="M259.79,225.09s-10.34-1.66-12.67-1.5-3.5.82-6.83.75a57,57,0,0,1-8.54-.76c-3.55-.53-10.25-.76-11,0a3.06,3.06,0,0,0,.58,4c1.42,1.05,5.38,3.8,8,4.09s11.33-.21,14.5-.46,6.71-1,7.46-1.46,6.42-4.42,5.62-6.71-5.54-6.66-10.08-7.12-5.79,3-7.87,3.08-3.3-1.54-6-1.58-8.67,4.62-10,4.16a3.45,3.45,0,0,1-1.63-5.16c1.5-2.67,14.33-12.59,14.46-16.75s-4.88-4.25-4.88-4.25a3.4,3.4,0,0,0-3.2,2.75c-.42,2.62,4.54,1.91,4.54,1.91s14.16.63,16-.29,2.25-3,1.37-3.87-1.21-1.29-2.62-1.21-2.63,1.08-2.59,2a5,5,0,0,0,6.46,3.16c4.29-1.25,4.54-10.33,4.54-10.33s-9.89-17.68-9.94-22.79,3.17-11,5.22-13.89,6.89-7.72,14.06-8S277,149.48,280,152.15a6.71,6.71,0,0,1,1.39,8.44c-1.28,1.84-10,4.67-12.66,4.78s-13.78-1.78-13.84-5.78,10.89-5.39,14.17-5.5,4.28,1.67,4.28,3.45-2.89,2.94-5,2.89-5.5-1.12-5.66-3.89,9.22-2.89,12.5-2,9.22,5.55,11,7.05,7.77,8.28,8,22.28-2.67,28.67-5,33.22-19.67,48-34.45,50-19.78,2-30.11,0-39.78-39-42.89-50.11-6-27.78-6-33.33-.67-15.45,3.45-19,12.44-7.06,16.27-7.72a117.87,117.87,0,0,1,14-1.73c3,0,3.56,2,3.45,3.28s-1.78,3.06-4.17,3.22-5.27-1.78-5.22-3.89,7.61-3.5,12-1.61,4.83,2.5,4.94,4.56-5.61,5.05-11.22,5-15.86-3-22.28-8.83-9.5-9.92-10.08-13.75-3.25-9.59,1.83-14.84,9.84-9.75,16.84-13.33S222.73,99.54,244,98.87s32.56,1.56,39.34,4a80.75,80.75,0,0,1,20.44,11.33c5.11,4.11,10.33,10.23,12.67,14.67s31.78,48.33,31.22,60-.33,13.78-10.67,31.33-36,56.34-36,56.34-5.77,11.66-18,11.77-90.55,0-90.55,0-8,.67-15.78-7.33-41-48-44.33-55.44-7.78-17.78-7.89-26.89S132,167.31,132,167.31s15.45-32.22,19.23-35.88,17.22-33.78,19-37.78,3.88-26.67,5.55-30.11,3-14.45,6.78-22.34S196.73,22.31,200,20.76,218.84,10.2,234.73,10s31.22,5.11,34.33,7.33,12.78,10.12,15.23,14.78,7.33,11,8.44,15.22,4.56,19,6,22.12,9.56,21.88,9.56,21.88,10.22,25.67,13.77,31.34,14.12,24.55,17.34,28.66,11.11,16.23,13.33,22.67,3.11,11.22,1.33,16.67a74.46,74.46,0,0,1-5.44,11.78,14.93,14.93,0,0,1,10,.22c5.78,2,23.78,10.66,27,13.89s7.78,6.44,9.44,11.11,16.56,30.78,18,34.78,15.45,30.55,18.56,47.33,7.89,44.44,7.67,53.11-3.34,42.67-6.56,51.22-11.67,19.78-19.11,27.34-16,15.22-23.78,17.88a48.06,48.06,0,0,1-13.22,2.78H122v5s-1,5.17,5.34,5.34,244.83,0,244.83,0a6.52,6.52,0,0,0,4.33-5.84c.17-4.5-.5-173.16-.5-173.16s.59-5.17-5.5-5.17l-241,.17s-7.61-.5-7.55,6.16,0,166.61,0,166.61.39,9.56-7,6.34S94.4,460.09,82,454,61.62,438.31,58,429.2a119.53,119.53,0,0,1-7.89-27.33c-1.55-10-4.33-26.44-2.77-37.67s8.22-59.44,9.66-65.66,10-42.45,19.89-53.45,27.11-29.78,35.78-35.33,16.56-21.67,19.67-27.78,14.44-28.22,18.77-32.67a47.59,47.59,0,0,0,6.34-7.77s4.44-5.67,7.16-6.95,7.89-6,7.89-6l2.84-2.44s1.62-1.43,3-.11,4.94,8.33,10.27,11,13.06,4.56,13.39,2.5-1.16-9.83,1.84-10.61,9.11-.61,11.66.45,15.17,8.22,16,8.44-1.89-7.44-1.89-7.44-1.22-3.5-.45-4.84,5-.61,7.78.84a64.62,64.62,0,0,1,11.61,8.11,22.11,22.11,0,0,0,5.67,4,12.92,12.92,0,0,0-.61-3.56c-.61-1.89-1.72-7.67-1-8.44s2.28-1.06,4.11.5S271.34,139,273,139.59s1.67.06,1.61-1.78-.78-7.44-.78-7.44.06-2.56,2.89-1.89,12.06,2.28,14.78,4.39,4.28,3.28,5.22,4.83-2.05-4.89-2-7,1.06-2.61,2.45-1.61,5.72,4.72,6.94,4.22,1.72-2.06,1.56-4.67-.95-7.28-2.17-9.5-3.5-2.11-3.39.56.56,26.22.89,27.94,1.05,16.45.94,18.95a50.13,50.13,0,0,1-1.44,8.94c-.61,2.17-1.67,8.5-3.56,12.22" transform="translate(-45.33 -8.47)"/></svg>