<?xml version="1.0" encoding="utf-8"?>
<!-- Svg Vector Icons : http://www.onlinewebfonts.com/icon -->
<!DOCTYPE svg PUBLIC "-//W3C//DTD SVG 1.1//EN" "http://www.w3.org/Graphics/SVG/1.1/DTD/svg11.dtd">
<svg version="1.1" xmlns="http://www.w3.org/2000/svg" xmlns:xlink="http://www.w3.org/1999/xlink" x="0px" y="0px" width="1em" height="1em" viewBox="0 0 1000 1000" enable-background="new 0 0 1000 1000" xml:space="preserve">
<metadata> Svg Vector Icons : http://www.onlinewebfonts.com/icon </metadata>
<g><g transform="translate(0.000000,511.000000) scale(0.100000,-0.100000)"><path d="M885.4,4978.4c-374.5-89.1-665.9-382.6-755-761.1c-26.3-109.3-30.4-668-30.4-4096.9c0-2603.1,6.1-4007.8,20.2-4078.7c72.9-384.6,382.6-704.4,773.2-797.5c192.3-44.5,8017.7-44.5,8210,0c382.6,91.1,672,380.5,763.1,763.1c44.5,192.3,44.5,8017.7,0,8210c-93.1,390.7-412.9,700.4-797.5,773.2c-70.8,14.2-1473.6,20.2-4088.8,18.2C1660.6,5006.8,982.5,5002.7,885.4,4978.4z M4026.9,1703.3v-332l-125.5-12.1c-70.8-6.1-372.4-8.1-674-6.1l-546.5,4.1l-6.1-449.4l-4.1-451.4h627.5h627.5v-334v-334h-627.5h-627.5V-667c0-350.2,6.1-455.4,26.3-455.4c12.1-2,338-4.1,722.6-6.1l698.3-4.1v-334v-334H2984.4H1850.9l-6.1,1892.6c-2,1040.4,0,1904.8,6.1,1918.9c6.1,18.2,244.9,24.3,1093,24.3h1082.9V1703.3z M6411.3,830.9c427.1-655.8,817.8-1263.1,870.4-1348.1l95.1-151.8l-6.1,1352.1l-6.1,1352.1l390.7-4.1l390.7-6.1V112.3v-1912.8l-415-6.1l-415-4.1L6459.9-501c-471.6,722.6-876.5,1346.1-900.7,1386.6l-44.5,74.9V-420v-1380.5H5130h-384.6l-6.1,1892.6c-2,1040.4,0,1904.8,6.1,1918.9c6.1,20.2,107.3,24.3,449.4,20.2l439.2-6.1L6411.3,830.9z"/></g></g>
</svg>